<?xml version="1.0" standalone="no"?>
<!DOCTYPE svg PUBLIC "-//W3C//DTD SVG 20010904//EN" "http://www.w3.org/TR/2001/REC-SVG-20010904/DTD/svg10.dtd">
<svg version="1.0" xmlns="http://www.w3.org/2000/svg" width="98.000000pt" height="98.000000pt"
    viewBox="0 0 98.000000 98.000000" preserveAspectRatio="xMidYMid meet">

    <g transform="translate(0.000000,98.000000) scale(0.100000,-0.100000)" fill="#2c2b2a" stroke="none">
        <path d="M520 880 c0 -18 30 -70 40 -70 17 0 11 46 -8 63 -21 19 -32 22 -32 7z" />
        <path d="M445 870 c-7 -11 34 -40 57 -40 27 0 11 27 -23 39 -16 5 -31 6 -34 1z" />
        <path d="M590 818 c0 -39 23 -78 34 -59 10 16 -2 67 -20 82 -12 9 -14 6 -14
-23z" />
        <path d="M475 800 c-7 -12 39 -24 61 -16 8 3 12 10 9 16 -8 13 -62 13 -70 0z" />
        <path d="M645 760 c-12 -53 17 -99 30 -47 6 21 -8 77 -19 77 -2 0 -7 -13 -11
-30z" />
        <path d="M520 760 c0 -14 50 -32 68 -25 11 4 12 8 2 20 -14 17 -70 21 -70 5z" />
        <path d="M560 712 c0 -19 60 -46 73 -33 15 15 -1 29 -41 37 -20 4 -32 3 -32
-4z" />
        <path d="M692 703 c-15 -27 -16 -83 -2 -83 19 0 33 46 23 76 -10 29 -10 29
-21 7z" />
        <path d="M590 655 c0 -11 46 -45 62 -45 25 0 23 16 -4 34 -21 15 -58 22 -58
11z" />
        <path d="M710 599 c-21 -48 -25 -69 -12 -69 19 0 45 42 44 71 -1 47 -10 46
-32 -2z" />
        <path d="M610 590 c0 -14 46 -60 60 -60 14 0 13 23 -2 42 -16 20 -58 33 -58
18z" />
        <path d="M728 523 c-9 -10 -19 -28 -22 -40 -9 -28 -23 -29 -31 -3 -7 23 -32
50 -46 50 -19 0 -8 -32 20 -61 26 -25 32 -27 59 -18 28 10 52 44 52 74 0 20
-14 19 -32 -2z" />
        <path d="M614 433 c4 -16 16 -36 27 -45 16 -14 18 -21 10 -37 -6 -11 -11 -23
-11 -28 1 -4 7 4 16 19 9 17 20 25 29 22 17 -7 75 47 75 71 0 19 -25 8 -54
-24 -24 -26 -46 -27 -46 -3 0 18 -29 52 -44 52 -5 0 -5 -12 -2 -27z" />
        <path d="M590 366 c0 -19 7 -42 16 -50 8 -9 13 -20 10 -24 -3 -5 13 -8 35 -8
32 1 46 7 66 31 32 36 17 42 -38 16 -52 -25 -49 -25 -49 -1 0 24 -21 70 -32
70 -4 0 -8 -15 -8 -34z" />
        <path d="M557 333 c-11 -10 -8 -81 4 -88 7 -5 4 -14 -8 -28 -18 -22 -18 -22 4
-4 14 12 23 15 28 8 3 -6 15 -11 26 -11 25 0 79 27 79 40 0 14 -46 13 -72 -1
-18 -10 -20 -9 -14 6 5 15 4 16 -8 6 -12 -10 -14 -6 -13 24 1 35 -13 61 -26
48z" />
        <path d="M501 271 c-15 -27 -14 -81 2 -81 19 -1 -33 -28 -78 -41 -22 -7 -35
-14 -28 -16 7 -2 33 5 58 16 43 19 47 19 74 3 28 -15 32 -15 68 2 38 18 38 18
13 28 -14 5 -39 7 -56 3 l-32 -5 5 49 c5 52 -9 75 -26 42z" />
    </g>
</svg>