<?xml version="1.0" standalone="no"?>
<!DOCTYPE svg PUBLIC "-//W3C//DTD SVG 20010904//EN" "http://www.w3.org/TR/2001/REC-SVG-20010904/DTD/svg10.dtd">
<svg version="1.0" xmlns="http://www.w3.org/2000/svg" width="98.000000pt" height="98.000000pt"
    viewBox="0 0 98.000000 98.000000" preserveAspectRatio="xMidYMid meet">

    <g transform="translate(0.000000,98.000000) scale(0.100000,-0.100000)" fill="#2c2b2a" stroke="none">
        <path d="M415 860 c-9 -17 -13 -35 -9 -41 9 -15 41 17 47 47 6 35 -19 31 -38
-6z" />
        <path d="M505 872 c-40 -8 -62 -42 -27 -42 21 0 68 35 56 42 -5 2 -18 3 -29 0z" />
        <path d="M368 833 c-19 -20 -25 -83 -9 -83 12 0 34 64 29 86 -3 14 -5 14 -20
-3z" />
        <path d="M437 803 c-14 -13 -6 -23 17 -23 33 0 57 10 50 21 -6 10 -57 12 -67
2z" />
        <path d="M312 777 c-15 -18 -12 -79 4 -84 14 -5 22 32 14 71 -4 26 -7 27 -18
13z" />
        <path d="M393 763 c-18 -7 -16 -33 2 -33 23 0 65 22 59 31 -6 10 -41 11 -61 2z" />
        <path d="M265 696 c-9 -31 5 -82 20 -79 16 4 17 38 2 74 l-14 34 -8 -29z" />
        <path d="M363 710 c-13 -5 -23 -16 -23 -25 0 -19 4 -19 46 1 50 24 30 45 -23
24z" />
        <path d="M327 642 c-22 -24 -21 -32 1 -32 10 0 29 11 42 25 l23 25 -25 0 c-14
0 -32 -8 -41 -18z" />
        <path d="M230 602 c0 -87 88 -96 134 -14 15 25 -27 11 -55 -19 -21 -23 -29
-27 -29 -15 0 23 -28 76 -40 76 -6 0 -10 -12 -10 -28z" />
        <path d="M220 519 c0 -53 44 -82 95 -63 17 7 50 62 42 71 -11 10 -47 -19 -53
-42 -7 -30 -20 -32 -28 -7 -4 11 -18 29 -31 42 l-25 23 0 -24z" />
        <path d="M324 425 c-8 -19 -17 -35 -20 -35 -3 0 -19 11 -36 25 -37 31 -51 32
-42 3 14 -46 53 -70 80 -47 12 10 13 9 8 -7 -5 -12 1 -9 15 8 31 38 45 88 25
88 -8 0 -22 -16 -30 -35z" />
        <path d="M361 381 c-6 -11 -11 -27 -11 -36 0 -11 -5 -15 -16 -11 -8 3 -12 2
-9 -4 9 -14 1 -13 -40 7 -48 23 -57 8 -16 -29 25 -23 39 -28 59 -23 16 4 29 1
34 -7 7 -9 8 -8 4 5 -3 10 1 28 9 40 17 24 20 63 6 72 -6 3 -15 -3 -20 -14z" />
        <path d="M401 321 c-7 -13 -11 -34 -8 -47 5 -26 -9 -35 -38 -23 -11 4 -33 8
-50 8 l-30 0 28 -24 c29 -26 87 -35 87 -13 0 6 9 3 20 -7 11 -10 22 -16 25
-13 3 3 -1 11 -9 17 -12 10 -13 18 -4 37 7 16 8 34 1 56 l-9 33 -13 -24z" />
        <path d="M457 284 c-12 -12 -8 -71 6 -83 16 -13 27 -5 27 18 -1 26 -24 73 -33
65z" />
        <path d="M450 191 c0 -7 -9 -9 -25 -5 -14 3 -37 3 -52 0 -23 -6 -24 -9 -12
-21 24 -24 73 -29 93 -10 16 16 20 16 66 -4 27 -12 55 -21 62 -21 7 0 -13 11
-45 24 -32 13 -64 29 -72 36 -11 9 -15 9 -15 1z" />
    </g>
</svg>